# xmcd
#
# Track frame offsets:
#	150
#	12645
#	24668
#	37298
#	49593
#	63245
#	76580
#	89175
#	104499
#	118468
#	129348
#	142185
#	155800
#	170316
#	184160
#	197559
#	210984
#	223495
#	235661
#	248486
#
# Disc length: 3500 seconds
#
# Revision: 0
# Processed by: cddbd v1.4PL0 Copyright (c) Steve Scherf et al.
# Submitted via: dBpowerAMP V4.0
#
DISCID=280daa14
DTITLE=Sonny Boy Williamson I - Sonny Boy Williamson Vol. 3 1944-47
DYEAR=1998
DGENRE=Blues
TTITLE0=Win The War Blues
TTITLE1=Desperado Woman
TTITLE2=Sonny Boy's Jump
TTITLE3=G.M. and O. Blues
TTITLE4=Early In The Morning
TTITLE5=Stop Breaking Down
TTITLE6=Shake The Boogie
TTITLE7=Mean Old Highway
TTITLE8=Sonny Boy's Cold Chills
TTITLE9=Apple Tree Swing
TTITLE10=Lacey Belle
TTITLE11=Sugar Gal
TTITLE12=Willow Tree Gal
TTITLE13=Wonderful Time
TTITLE14=Better Cut That Out
TTITLE15=Blues About My Baby
TTITLE16=Southern Dream
TTITLE17=Rub A Dub
TTITLE18=I'm A Highway Man
TTITLE19=P. Vine Blues
EXTD=submitted by william hale
EXTT0=
EXTT1=
EXTT2=
EXTT3=
EXTT4=
EXTT5=
EXTT6=
EXTT7=
EXTT8=
EXTT9=
EXTT10=
EXTT11=
EXTT12=
EXTT13=
EXTT14=
EXTT15=
EXTT16=
EXTT17=
EXTT18=
EXTT19=
PLAYORDER=
